<svg version="1.1" xmlns="http://www.w3.org/2000/svg" xmlns:xlink="http://www.w3.org/1999/xlink" x="0px" y="0px"
	 width="745.62px" height="286.69px" viewBox="0 0 745.62 286.69" style="enable-background:new 0 0 745.62 286.69;"
	 xml:space="preserve">
<style type="text/css">
	.st0{fill:#F7BC18;}
	.st1{fill:#FFFFFF;}
</style>
<defs>
</defs>
<g>
	<polygon class="st0" points="8.46,235.41 708.68,235.41 710.86,223.04 10.64,223.04 	"/>
	<path class="st1" d="M45.73,200.69c9.42,0,17.66-3.42,24.52-10.17c6.67-6.57,11-15.27,12.88-25.9c1.77-10.02,1.59-21.23-0.53-33.31
		c-2.09-11.99-6.49-24.02-13.04-35.77C57.67,73.89,53.32,53.42,56.62,34.73c1.29-7.3,4.07-13.12,8.26-17.3
		c4.09-4.05,8.8-6.02,14.38-6.02c5.7,0,9.82,1.63,12.6,5.02c2.8,3.38,3.67,7.77,2.67,13.44l-2.36,13.39h12.36l2.36-13.39
		c1.58-8.95-0.01-16.25-4.71-21.7c-4.7-5.41-11.79-8.16-21.06-8.16c-9.22,0-17.35,3.38-24.17,10c-6.66,6.49-10.98,15.09-12.83,25.54
		c-1.87,10.6-1.66,21.7,0.65,32.97c2.27,11.21,6.56,22.8,12.78,34.52c6.21,10.86,10.36,21.95,12.35,32.93
		c2.01,10.95,2.23,20.95,0.68,29.74c-1.29,7.32-4.1,13.2-8.33,17.47c-4.09,4.12-8.78,6.12-14.35,6.12c-5.7,0-9.82-1.65-12.61-5.02
		c-2.8-3.38-3.65-7.77-2.65-13.45l2.65-15.01H22.61l-2.65,15.01c-1.58,8.95,0.01,16.25,4.71,21.69
		C29.34,197.94,36.43,200.69,45.73,200.69z"/>
	<path class="st1" d="M146.52,122.12h22.18c9.39,0,17.57-3.07,24.31-9.09c6.69-5.97,10.95-13.96,12.68-23.75l9.71-55.09
		c1.66-9.44,0.15-17.14-4.52-22.85c-4.66-5.73-11.77-8.63-21.13-8.63H155.2l-34.43,195.27h12.37L146.52,122.12z M165.57,14.1h22.34
		c5.68,0,9.8,1.79,12.53,5.48c2.82,3.76,3.64,8.63,2.54,14.89l-9.66,54.81c-1.18,6.72-3.87,12.07-7.97,15.85
		c-4.07,3.77-8.81,5.59-14.47,5.59h-22.34L165.57,14.1z"/>
	<polygon class="st1" points="618.28,186.06 574.35,186.06 589.15,102.13 623.62,102.13 625.73,90.2 591.26,90.2 604.63,14.37 
		647.02,14.37 649.08,2.72 594.33,2.72 559.89,197.99 616.17,197.99 	"/>
	<path class="st1" d="M742.67,43.27l2.36-13.39c1.58-8.95-0.02-16.25-4.73-21.7c-4.68-5.41-11.77-8.16-21.06-8.16
		c-9.22,0-17.35,3.38-24.17,10c-6.66,6.49-10.98,15.09-12.83,25.54c-1.87,10.6-1.66,21.7,0.65,32.97
		c2.27,11.18,6.57,22.77,12.79,34.5c6.19,10.87,10.35,21.96,12.35,32.94c1.99,10.95,2.22,20.95,0.67,29.74
		c-1.29,7.32-4.08,13.18-8.32,17.46c-4.1,4.14-8.8,6.14-14.37,6.14c-5.7,0-9.82-1.63-12.6-5.02c-2.8-3.38-3.67-7.77-2.67-13.45
		l2.65-15.01h-12.66l-2.65,15.01c-1.58,8.95,0.01,16.25,4.71,21.69c4.66,5.44,11.75,8.19,21.05,8.19c9.44,0,17.69-3.42,24.52-10.17
		c6.67-6.58,11.02-15.29,12.89-25.9c1.77-10.02,1.59-21.23-0.53-33.31c-2.12-12.05-6.52-24.08-13.06-35.77
		c-11.88-21.66-16.23-42.12-12.93-60.81c1.29-7.3,4.07-13.12,8.29-17.3c4.07-4.05,8.76-6.02,14.35-6.02c5.7,0,9.82,1.65,12.61,5.02
		c2.8,3.38,3.65,7.77,2.65,13.44l-2.36,13.39H742.67z"/>
	<polygon class="st1" points="460.24,197.99 472.29,129.63 491.63,103.96 510.45,197.99 523.83,197.99 502.37,89.72 567.93,2.72 
		553.94,2.72 476.56,105.38 494.67,2.72 482.3,2.72 447.88,197.99 	"/>
	<path class="st1" d="M311.78,200.71c55.43,0,108.28-44.93,118.05-100.35C439.6,44.93,402.59,0,347.17,0
		c-55.42,0-108.28,44.93-118.05,100.35C219.34,155.78,256.35,200.71,311.78,200.71z M297.5,186.7
		c-15.76-3.16-29.08-10.88-38.93-21.72l53.14-58.86L297.5,186.7z M313.96,188.34c-3.44,0-6.78-0.25-10.05-0.64l12.85-72.85
		l35.85,65.14C340.36,185.29,327.25,188.34,313.96,188.34z M359.07,176.97l-32.43-58.94l72.26,24.91
		C388.48,157.17,374.65,168.97,359.07,176.97z M418.78,83.01l-73.31,22.53l58.8-65.13C413.13,52.12,418.38,66.73,418.78,83.01z
		 M361.44,14.01c15.76,3.16,29.07,10.87,38.93,21.72l-53.14,58.85L361.44,14.01z M418.63,89.6c-0.19,3.54-0.53,7.11-1.17,10.76
		c-2.31,13.08-7.44,25.46-14.55,36.63l-65.27-22.5L418.63,89.6z M327.67,110.58c-5.65,0-9.42-4.58-8.43-10.23
		c1-5.65,6.39-10.23,12.03-10.23c5.65,0,9.42,4.58,8.43,10.23C338.71,106.01,333.32,110.58,327.67,110.58z M344.99,12.37
		c3.44,0,6.78,0.25,10.05,0.63l-12.85,72.85l-35.84-65.13C318.59,15.42,331.69,12.37,344.99,12.37z M299.88,23.73l32.43,58.93
		l-72.26-24.9C270.47,43.53,284.3,31.74,299.88,23.73z M241.49,100.35c2.31-13.09,7.44-25.47,14.56-36.64l65.27,22.49l-81,24.9
		C240.51,107.57,240.85,104,241.49,100.35z M313.48,95.15l-58.81,65.13c-8.86-11.7-14.11-26.31-14.51-42.6L313.48,95.15z"/>
	<g>
		<path class="st1" d="M20.39,269.07c-0.48,2.7-1.69,4.77-3.63,6.2c-1.94,1.43-4.47,2.15-7.58,2.15H6.9l-1.57,8.93H0l4.43-25.11
			h8.02c3.05,0,5.25,0.66,6.6,1.97C20.4,264.51,20.85,266.47,20.39,269.07z M7.67,273.05h1.75c1.64,0,2.92-0.32,3.85-0.97
			c0.93-0.65,1.5-1.59,1.72-2.83c0.22-1.25,0.04-2.17-0.53-2.77c-0.58-0.6-1.59-0.89-3.05-0.89H8.98L7.67,273.05z"/>
		<path class="st1" d="M38.31,286.35H23.85l4.43-25.11h14.46l-0.77,4.36h-9.14l-0.97,5.51h8.5l-0.77,4.36h-8.5l-1.14,6.48h9.14
			L38.31,286.35z"/>
		<path class="st1" d="M52.33,276.71l-1.7,9.64h-5.32l4.43-25.11h7.32c3.41,0,5.83,0.62,7.25,1.86c1.42,1.24,1.9,3.13,1.46,5.66
			c-0.26,1.48-0.9,2.79-1.91,3.94c-1.02,1.15-2.33,2.05-3.93,2.7c2.78,5.64,4.6,9.29,5.46,10.94h-5.91l-4.3-9.64H52.33z
			 M53.09,272.38h1.72c1.68,0,2.97-0.28,3.88-0.84c0.9-0.56,1.46-1.44,1.67-2.64c0.21-1.19-0.05-2.04-0.78-2.54
			c-0.73-0.5-1.95-0.76-3.67-0.76h-1.61L53.09,272.38z"/>
		<path class="st1" d="M86.34,279.37c-0.4,2.27-1.53,4.05-3.39,5.36c-1.86,1.31-4.25,1.96-7.16,1.96c-2.68,0-4.96-0.5-6.84-1.51
			l0.87-4.95c1.56,0.76,2.9,1.29,4.02,1.6c1.12,0.31,2.17,0.46,3.14,0.46c1.17,0,2.1-0.22,2.81-0.67c0.7-0.45,1.13-1.11,1.29-1.99
			c0.09-0.49,0.03-0.93-0.18-1.31c-0.21-0.38-0.55-0.75-1.02-1.11c-0.47-0.35-1.45-0.92-2.95-1.7c-1.41-0.72-2.44-1.41-3.09-2.08
			s-1.13-1.44-1.43-2.32c-0.3-0.88-0.35-1.91-0.14-3.09c0.39-2.22,1.45-3.97,3.18-5.24c1.73-1.27,3.92-1.91,6.58-1.91
			c1.31,0,2.52,0.15,3.65,0.46c1.13,0.31,2.29,0.74,3.49,1.31l-2.45,4.14c-1.24-0.55-2.28-0.93-3.12-1.15
			c-0.84-0.22-1.68-0.33-2.53-0.33c-1.01,0-1.82,0.23-2.44,0.7c-0.62,0.47-1,1.08-1.13,1.84c-0.08,0.47-0.05,0.88,0.11,1.23
			c0.16,0.35,0.44,0.69,0.86,1.01s1.44,0.91,3.06,1.76c2.15,1.12,3.56,2.25,4.23,3.37C86.43,276.35,86.63,277.74,86.34,279.37z"/>
		<path class="st1" d="M116.43,273.76c-0.73,4.16-2.33,7.35-4.78,9.58c-2.45,2.23-5.61,3.35-9.45,3.35s-6.6-1.12-8.27-3.35
			c-1.67-2.23-2.13-5.44-1.4-9.62c0.74-4.18,2.33-7.37,4.79-9.58c2.46-2.2,5.61-3.31,9.47-3.31c3.86,0,6.61,1.11,8.27,3.33
			C116.71,266.4,117.16,269.59,116.43,273.76z M98.1,273.76c-0.49,2.81-0.33,4.92,0.48,6.34c0.81,1.42,2.28,2.13,4.4,2.13
			c4.25,0,6.87-2.82,7.87-8.47c1-5.66-0.62-8.49-4.84-8.49c-2.12,0-3.84,0.71-5.17,2.14C99.51,268.84,98.6,270.95,98.1,273.76z"/>
		<path class="st1" d="M143.45,286.35h-6.77l-7.57-19h-0.15c-0.37,3.35-0.69,5.75-0.94,7.18l-2.08,11.82h-4.76l4.43-25.11h6.72
			l7.59,18.81h0.12c0.4-3.26,0.72-5.57,0.96-6.92l2.1-11.89h4.79L143.45,286.35z"/>
		<path class="st1" d="M166.9,286.35l-0.77-5.98h-9.15l-2.87,5.98h-5.74l13.31-25.21h6.51l4.45,25.21H166.9z M165.65,275.9
			c-0.73-5.42-1.14-8.48-1.22-9.19c-0.09-0.71-0.14-1.27-0.16-1.68c-0.64,1.47-2.36,5.09-5.16,10.87H165.65z"/>
		<path class="st1" d="M177.56,286.35l4.43-25.11h5.32l-3.65,20.71h10.18l-0.78,4.4H177.56z"/>
		<path class="st1" d="M230.48,269.07c-0.48,2.7-1.69,4.77-3.63,6.2c-1.94,1.43-4.47,2.15-7.58,2.15h-2.28l-1.57,8.93h-5.32
			l4.43-25.11h8.02c3.05,0,5.25,0.66,6.6,1.97C230.49,264.51,230.93,266.47,230.48,269.07z M217.75,273.05h1.75
			c1.64,0,2.92-0.32,3.85-0.97c0.93-0.65,1.5-1.59,1.72-2.83c0.22-1.25,0.04-2.17-0.53-2.77c-0.58-0.6-1.59-0.89-3.05-0.89h-2.42
			L217.75,273.05z"/>
		<path class="st1" d="M248.39,286.35h-14.46l4.43-25.11h14.46l-0.77,4.36h-9.14l-0.97,5.51h8.5l-0.77,4.36h-8.5l-1.14,6.48h9.14
			L248.39,286.35z"/>
		<path class="st1" d="M262.41,276.71l-1.7,9.64h-5.32l4.43-25.11h7.32c3.41,0,5.83,0.62,7.25,1.86c1.42,1.24,1.9,3.13,1.46,5.66
			c-0.26,1.48-0.9,2.79-1.91,3.94c-1.02,1.15-2.33,2.05-3.93,2.7c2.78,5.64,4.6,9.29,5.46,10.94h-5.91l-4.3-9.64H262.41z
			 M263.17,272.38h1.72c1.68,0,2.97-0.28,3.88-0.84c0.9-0.56,1.46-1.44,1.67-2.64c0.21-1.19-0.05-2.04-0.78-2.54
			c-0.73-0.5-1.95-0.76-3.67-0.76h-1.61L263.17,272.38z"/>
		<path class="st1" d="M285.61,286.35h-5.24l4.43-25.11h14.39l-0.77,4.36h-9.15l-1.14,6.48h8.52l-0.77,4.35h-8.52L285.61,286.35z"/>
		<path class="st1" d="M326.44,273.76c-0.73,4.16-2.33,7.35-4.78,9.58c-2.45,2.23-5.61,3.35-9.45,3.35s-6.6-1.12-8.27-3.35
			c-1.67-2.23-2.13-5.44-1.4-9.62c0.74-4.18,2.33-7.37,4.79-9.58c2.46-2.2,5.61-3.31,9.47-3.31c3.86,0,6.61,1.11,8.27,3.33
			C326.72,266.4,327.18,269.59,326.44,273.76z M308.12,273.76c-0.49,2.81-0.33,4.92,0.48,6.34c0.81,1.42,2.28,2.13,4.4,2.13
			c4.25,0,6.87-2.82,7.87-8.47c1-5.66-0.62-8.49-4.84-8.49c-2.12,0-3.84,0.71-5.17,2.14C309.52,268.84,308.61,270.95,308.12,273.76z
			"/>
		<path class="st1" d="M338.21,276.71l-1.7,9.64h-5.32l4.43-25.11h7.32c3.41,0,5.83,0.62,7.25,1.86s1.9,3.13,1.46,5.66
			c-0.26,1.48-0.9,2.79-1.92,3.94c-1.02,1.15-2.32,2.05-3.93,2.7c2.78,5.64,4.6,9.29,5.46,10.94h-5.91l-4.29-9.64H338.21z
			 M338.97,272.38h1.72c1.68,0,2.97-0.28,3.88-0.84c0.9-0.56,1.46-1.44,1.67-2.64c0.21-1.19-0.05-2.04-0.78-2.54
			c-0.73-0.5-1.95-0.76-3.67-0.76h-1.61L338.97,272.38z"/>
		<path class="st1" d="M366.8,286.35l-2.57-19.7h-0.16c-0.49,4.01-0.85,6.68-1.09,8.02l-2.06,11.68h-4.76l4.43-25.11h7.25l2.56,19.2
			h0.1l9.69-19.2h7.25l-4.43,25.11h-4.96l2.1-11.89c0.1-0.56,0.22-1.21,0.37-1.94c0.15-0.73,0.57-2.68,1.26-5.84h-0.15l-9.94,19.67
			H366.8z"/>
		<path class="st1" d="M406.46,286.35l-0.77-5.98h-9.15l-2.87,5.98h-5.74l13.31-25.21h6.51l4.45,25.21H406.46z M405.21,275.9
			c-0.73-5.42-1.14-8.48-1.22-9.19c-0.09-0.71-0.14-1.27-0.16-1.68c-0.64,1.47-2.36,5.09-5.16,10.87H405.21z"/>
		<path class="st1" d="M439.39,286.35h-6.77l-7.57-19h-0.16c-0.37,3.35-0.69,5.75-0.94,7.18l-2.08,11.82h-4.76l4.43-25.11h6.72
			l7.59,18.81h0.12c0.4-3.26,0.72-5.57,0.96-6.92l2.1-11.89h4.79L439.39,286.35z"/>
		<path class="st1" d="M461.85,265.31c-2,0-3.69,0.75-5.05,2.26s-2.28,3.6-2.76,6.29c-0.99,5.6,0.62,8.4,4.82,8.4
			c1.76,0,3.98-0.44,6.64-1.32l-0.79,4.47c-2.21,0.86-4.59,1.29-7.13,1.29c-3.65,0-6.25-1.11-7.8-3.32
			c-1.54-2.22-1.95-5.4-1.22-9.54c0.46-2.61,1.34-4.9,2.64-6.86c1.3-1.96,2.93-3.47,4.89-4.52c1.96-1.05,4.14-1.57,6.54-1.57
			c2.44,0,4.78,0.59,7.04,1.77l-2.48,4.33c-0.86-0.45-1.74-0.84-2.63-1.17C463.67,265.47,462.77,265.31,461.85,265.31z"/>
		<path class="st1" d="M486.11,286.35h-14.46l4.43-25.11h14.46l-0.77,4.36h-9.14l-0.97,5.51h8.5l-0.77,4.36h-8.5l-1.14,6.48h9.14
			L486.11,286.35z"/>
		<path class="st1" d="M518.38,265.31c-2,0-3.69,0.75-5.05,2.26c-1.36,1.51-2.28,3.6-2.76,6.29c-0.99,5.6,0.62,8.4,4.82,8.4
			c1.76,0,3.98-0.44,6.64-1.32l-0.79,4.47c-2.21,0.86-4.59,1.29-7.13,1.29c-3.65,0-6.25-1.11-7.8-3.32
			c-1.54-2.22-1.95-5.4-1.22-9.54c0.46-2.61,1.34-4.9,2.64-6.86c1.3-1.96,2.93-3.47,4.89-4.52c1.97-1.05,4.14-1.57,6.54-1.57
			c2.44,0,4.78,0.59,7.04,1.77l-2.48,4.33c-0.86-0.45-1.74-0.84-2.63-1.17C520.2,265.47,519.29,265.31,518.38,265.31z"/>
		<path class="st1" d="M553.19,273.76c-0.73,4.16-2.33,7.35-4.78,9.58c-2.45,2.23-5.61,3.35-9.45,3.35s-6.6-1.12-8.27-3.35
			c-1.67-2.23-2.13-5.44-1.4-9.62c0.74-4.18,2.33-7.37,4.79-9.58c2.46-2.2,5.61-3.31,9.47-3.31c3.86,0,6.61,1.11,8.27,3.33
			C553.46,266.4,553.92,269.59,553.19,273.76z M534.86,273.76c-0.49,2.81-0.33,4.92,0.48,6.34c0.81,1.42,2.28,2.13,4.4,2.13
			c4.25,0,6.87-2.82,7.87-8.47c1-5.66-0.62-8.49-4.84-8.49c-2.12,0-3.84,0.71-5.17,2.14C536.27,268.84,535.35,270.95,534.86,273.76z
			"/>
		<path class="st1" d="M573.3,286.35l-0.77-5.98h-9.15l-2.87,5.98h-5.74l13.31-25.21h6.51l4.45,25.21H573.3z M572.05,275.9
			c-0.73-5.42-1.14-8.48-1.22-9.19c-0.09-0.71-0.14-1.27-0.16-1.68c-0.64,1.47-2.36,5.09-5.16,10.87H572.05z"/>
		<path class="st1" d="M598.33,265.31c-2,0-3.69,0.75-5.05,2.26s-2.28,3.6-2.76,6.29c-0.99,5.6,0.62,8.4,4.82,8.4
			c1.76,0,3.98-0.44,6.64-1.32l-0.79,4.47c-2.21,0.86-4.59,1.29-7.13,1.29c-3.65,0-6.25-1.11-7.8-3.32
			c-1.54-2.22-1.95-5.4-1.22-9.54c0.46-2.61,1.34-4.9,2.64-6.86c1.3-1.96,2.93-3.47,4.89-4.52c1.97-1.05,4.14-1.57,6.54-1.57
			c2.44,0,4.78,0.59,7.04,1.77l-2.48,4.33c-0.86-0.45-1.74-0.84-2.63-1.17C600.15,265.47,599.25,265.31,598.33,265.31z"/>
		<path class="st1" d="M628.71,286.35h-5.31l1.91-10.84h-9.94l-1.91,10.84h-5.32l4.43-25.11h5.32l-1.74,9.84h9.94l1.74-9.84h5.31
			L628.71,286.35z"/>
		<path class="st1" d="M636.8,286.35l4.43-25.11h5.32l-4.43,25.11H636.8z"/>
		<path class="st1" d="M672.48,286.35h-6.77l-7.57-19h-0.16c-0.37,3.35-0.69,5.75-0.94,7.18l-2.08,11.82h-4.76l4.43-25.11h6.72
			l7.59,18.81h0.12c0.4-3.26,0.72-5.57,0.96-6.92l2.1-11.89h4.79L672.48,286.35z"/>
		<path class="st1" d="M692.58,272.25h9.96l-2.3,13.02c-1.71,0.53-3.29,0.9-4.76,1.11c-1.46,0.21-2.94,0.32-4.43,0.32
			c-3.79,0-6.49-1.11-8.09-3.34c-1.61-2.23-2.04-5.42-1.31-9.59c0.71-4.05,2.43-7.21,5.15-9.48c2.72-2.27,6.13-3.4,10.24-3.4
			c2.58,0,4.97,0.52,7.18,1.55l-2.52,4.26c-1.67-0.92-3.5-1.37-5.48-1.37c-2.3,0-4.28,0.77-5.94,2.32
			c-1.66,1.55-2.72,3.62-3.18,6.24c-0.48,2.72-0.29,4.81,0.57,6.24c0.86,1.44,2.36,2.16,4.49,2.16c1.11,0,2.26-0.11,3.44-0.34
			l0.92-5.24h-4.76L692.58,272.25z"/>
	</g>
</g>
</svg>
